PathFileType	4	(X/Y/Z)	s01c0401.trc
DataRate	CameraRate	NumFrames	NumMarkers	Units	OrigDataRate	OrigDataStartFrame	OrigNumFrames
200	200	7	48	mm	200	1000	2000
Frame#	Time	racr			lacr			c7			jug			rlel			rdr			llel			ldr			s2			lic			ric			lasi			rasi			rpsi			lpsi			rgt			lgt			rth1			rth2			rth3			rth4			rlfc			rsh1			rsh2			rsh3			rsh4			rlmal			rmmal			rcal			rtoe			rmt5			lth1			lth2			lth4			lth3			llfc			lsh1			lsh2			lsh3			lsh4			llmal			lmmal			lcal			ltoe			lmt5			SBIKE			LBIKE			RBIKE			
		X1	Y1	Z1	X2	Y2	Z2	X3	Y3	Z3	X4	Y4	Z4	X5	Y5	Z5	X6	Y6	Z6	X7	Y7	Z7	X8	Y8	Z8	X9	Y9	Z9	X10	Y10	Z10	X11	Y11	Z11	X12	Y12	Z12	X13	Y13	Z13	X14	Y14	Z14	X15	Y15	Z15	X16	Y16	Z16	X17	Y17	Z17	X18	Y18	Z18	X19	Y19	Z19	X20	Y20	Z20	X21	Y21	Z21	X22	Y22	Z22	X23	Y23	Z23	X24	Y24	Z24	X25	Y25	Z25	X26	Y26	Z26	X27	Y27	Z27	X28	Y28	Z28	X29	Y29	Z29	X30	Y30	Z30	X31	Y31	Z31	X32	Y32	Z32	X33	Y33	Z33	X34	Y34	Z34	X35	Y35	Z35	X36	Y36	Z36	X37	Y37	Z37	X38	Y38	Z38	X39	Y39	Z39	X40	Y40	Z40	X41	Y41	Z41	X42	Y42	Z42	X43	Y43	Z43	X44	Y44	Z44	X45	Y45	Z45	X46	Y46	Z46	X47	Y47	Z47	X48	Y48	Z48	
1000	5.0000	731.360025	1280.016394	-106.802105	739.477480	1219.944354	-484.899841	749.998119	1358.975852	-299.024681	723.052631	1195.841460	-281.776748	571.333331	1071.932543	36.646889	703.861528	889.046236	-50.075827	532.845130	1030.200555	-593.062752	681.108198	887.830796	-468.901071	202.762106	1219.165255	-259.981518	354.808637	1206.819259	-449.267441	370.811629	1200.208887	-118.114490	354.354934	1153.495780	-423.566888	385.688387	1153.539054	-149.124682	241.374349	1255.657093	-211.356884	233.830234	1258.721677	-315.659028	310.673551	1092.137750	-81.332904	283.047047	1074.065616	-458.593188	395.747554	992.722981	-75.400810	451.940669	931.220354	-81.856867	507.017799	860.222923	-94.801826	491.037325	964.296912	-104.791491	531.777348	755.771245	-117.330271	426.554411	704.967653	-78.480242	354.356652	660.812565	-79.553688	273.956020	622.530976	-85.698592	376.353638	620.468849	-117.976294	160.124813	578.317600	-97.843691	189.408009	549.896948	-176.665801	119.877017	601.672661	-152.769569	202.504837	342.407056	-144.335336	139.519222	427.765998	-72.837832	322.029808	946.934318	-466.199042	377.289783	880.211403	-456.872781	420.307646	912.789604	-455.270870	424.068412	810.286854	-439.309809	467.491732	709.128468	-422.083143	401.201016	612.739103	-456.155818	371.269111	530.963339	-449.817186	338.532217	452.881045	-437.916604	423.763886	514.278478	-422.146395	286.833574	337.809547	-423.975500	322.982819	344.990103	-344.327456	233.511868	323.106090	-384.266392	482.429222	200.471394	-380.969213	378.101161	215.808216	-450.371338	-275.581838	875.486096	-269.188778	-21.384769	80.266018	-454.003534	-21.326096	80.622470	-54.052365	
1001	5.0050	730.844336	1280.807977	-104.550098	741.115231	1219.619875	-482.453397	750.482970	1359.166808	-296.517532	723.733972	1196.336521	-279.293732	570.283058	1071.221465	36.754246	703.675658	889.104546	-50.634179	534.195944	1031.428881	-592.783146	681.374527	887.760633	-469.130459	203.105549	1218.805282	-261.471047	355.271525	1205.387778	-449.933394	370.476198	1201.262052	-117.915861	355.259173	1152.102301	-424.160202	385.648233	1154.247788	-149.453713	241.381437	1255.546394	-212.927627	234.574693	1257.863529	-317.299662	311.324020	1093.529999	-81.260335	282.182681	1072.107937	-458.542714	398.872857	995.791505	-75.101985	456.552960	935.630275	-81.609590	513.163796	865.974850	-94.777296	494.573509	969.464901	-105.425153	538.878715	761.439167	-117.609123	433.575992	711.644307	-79.025297	360.855049	668.265684	-79.992029	279.901673	630.996142	-86.113790	382.297338	627.915759	-118.563233	165.330403	587.593473	-98.432449	194.871742	559.294814	-177.441094	124.265627	610.326993	-153.046035	210.489226	352.144425	-144.553808	146.462408	436.814349	-73.140810	318.199557	944.428314	-466.010037	371.572995	876.213232	-456.531031	415.844517	907.768021	-454.885215	416.311375	805.002807	-438.822999	458.774455	702.842113	-421.766164	393.696265	606.086109	-456.139721	364.395930	523.899147	-449.692127	332.271159	445.740795	-437.942958	416.815575	507.917243	-421.609348	281.104717	330.552145	-423.546471	319.126688	339.071830	-344.669306	228.526149	316.885562	-383.973195	475.722889	190.504350	-380.442950	371.569531	207.590557	-450.271282	-275.639078	875.481833	-269.167160	-21.385604	80.267164	-454.003344	-21.340592	80.636391	-54.055287	
1002	5.0100	730.321910	1281.769948	-102.300709	742.823340	1219.318283	-479.890882	750.990542	1359.357580	-293.880479	724.505266	1196.731824	-276.731779	569.276476	1070.538906	36.842787	703.491934	889.277237	-51.281355	535.565228	1032.756548	-592.670320	681.938332	887.394725	-469.404229	203.567267	1218.388773	-263.071869	355.921203	1204.109672	-450.524802	369.879892	1202.254658	-118.689535	356.243809	1150.744900	-424.759721	385.600892	1154.950915	-149.740694	241.342085	1255.479602	-214.516387	235.402766	1257.059868	-319.017368	311.894991	1095.226563	-81.229499	281.396871	1070.453749	-458.585134	401.756087	998.905789	-74.551999	460.878475	940.182298	-81.299569	519.336949	871.878696	-94.315007	497.507884	975.037029	-105.467981	545.734947	767.559128	-117.414563	440.627065	718.336008	-79.580450	367.556355	675.532271	-80.520198	286.201002	639.178847	-86.630554	388.393930	635.142955	-119.353861	170.983455	596.189815	-98.976374	200.876744	568.326814	-178.553824	129.043189	618.411016	-153.629888	218.874327	361.510333	-144.851005	153.853758	445.307728	-73.506613	314.431875	942.171091	-466.005628	365.846389	872.547626	-456.300563	411.239754	902.873255	-455.191898	408.525200	800.256481	-438.513950	449.805107	696.807643	-421.559325	385.791999	599.850778	-456.212644	357.092643	517.353089	-449.669049	325.577709	439.076383	-437.995806	409.369156	501.871572	-421.259006	275.021591	323.641122	-423.086222	315.065950	333.672907	-345.017800	223.084445	311.154069	-383.742628	468.423003	180.983084	-380.035508	364.580221	199.871003	-450.238359	-275.668508	875.464269	-269.240752	-21.388657	80.264290	-454.006521	-21.335497	80.621652	-54.053430	
1003	5.0150	729.895382	1282.664132	-99.604045	744.494792	1219.134624	-477.313182	751.520251	1359.522763	-291.197259	725.262734	1197.019052	-274.229121	568.208331	1069.902822	36.941345	703.285680	889.497569	-51.788005	537.067400	1034.097427	-592.622703	682.004860	887.715608	-469.778076	203.994795	1218.189620	-264.637322	356.803964	1202.912828	-450.997385	369.188699	1203.222996	-118.845203	357.273023	1149.447534	-425.279717	385.541362	1155.655415	-150.010599	241.420790	1255.516527	-216.068857	236.280531	1256.312585	-320.778184	312.446670	1096.970668	-81.260889	280.648714	1068.892579	-458.531943	404.767457	1002.209046	-74.007850	464.724743	944.808962	-80.846412	524.606844	877.798171	-93.865768	500.376997	980.319185	-105.708317	552.900868	773.971574	-117.869238	447.721839	724.934918	-80.089601	374.387993	682.589829	-81.067127	292.669109	646.805234	-87.275279	394.842567	642.221032	-120.077323	177.086530	604.098603	-99.546852	207.186185	576.699437	-179.504015	134.365145	625.869659	-154.208399	227.805432	370.237182	-145.157441	161.737976	453.366259	-73.995783	310.769804	940.192353	-466.153550	360.224848	869.265461	-456.252534	406.223690	898.315629	-455.309224	400.941451	795.738261	-438.661178	440.517131	691.106853	-421.331936	377.537412	594.135402	-456.361231	349.401424	511.292793	-449.702508	318.430972	432.974563	-438.123811	401.609972	496.300425	-420.952405	268.564243	317.207394	-422.691022	310.819724	328.793599	-345.373917	217.222218	305.901532	-383.585748	460.622709	171.920311	-379.838678	357.121131	192.621800	-450.203786	-275.764166	875.456689	-269.242116	-21.399707	80.260382	-454.010164	-21.337218	80.614110	-54.056448	
1004	5.0200	729.453135	1283.310230	-97.021325	746.188074	1218.986624	-474.651760	752.048182	1359.627944	-288.425645	725.879923	1197.451517	-271.442364	567.079347	1069.296352	37.143673	703.130666	889.697065	-52.269861	538.539619	1035.504427	-592.607046	682.342494	887.736005	-470.084541	204.519706	1218.008619	-266.220618	357.965011	1201.761484	-451.322977	368.471338	1204.196382	-118.941161	358.343225	1148.188594	-425.638604	385.483704	1156.344280	-150.226954	241.624089	1255.613807	-217.697607	237.219643	1255.633894	-322.567749	312.615260	1098.906368	-82.324178	279.865584	1067.603607	-458.576458	407.167165	1005.490092	-73.449459	467.993779	949.502627	-80.066740	528.997857	883.447837	-93.187967	503.025951	985.724850	-105.842275	559.690048	780.560654	-117.777007	454.762245	731.363483	-80.529893	381.236635	689.397585	-81.680754	299.409389	653.994744	-87.911706	401.468856	649.106725	-120.889778	183.531837	611.532837	-100.159007	213.984577	584.580269	-180.683281	139.789761	632.692213	-155.044571	237.124311	378.509249	-145.509293	170.004776	460.818281	-74.468131	307.236920	938.503898	-466.376893	354.702298	866.354480	-456.235575	401.505331	894.102192	-455.452411	393.461111	791.748409	-438.310593	430.958691	685.836368	-421.336199	369.005035	589.019398	-456.584246	341.201845	506.049469	-450.082857	310.818723	427.542732	-438.353654	393.504583	491.304505	-420.813347	261.759848	311.317983	-422.387399	306.407126	324.434234	-345.738638	210.966496	301.207824	-383.498273	452.293833	163.598496	-379.666850	349.207811	185.876883	-450.206954	-275.823442	875.443614	-269.264090	-21.411645	80.250810	-454.017493	-21.354205	80.628666	-54.075448	
1005	5.0250	728.994138	1283.886571	-94.362640	747.909365	1218.872501	-471.955903	752.585662	1359.773724	-285.550256	726.576935	1197.555031	-268.830231	565.913382	1068.775032	37.339973	702.968599	889.904222	-52.659267	540.101179	1036.988431	-592.717009	682.626149	887.775079	-470.418288	205.069371	1217.745838	-267.871541	359.435158	1200.673208	-451.489219	367.566982	1205.044529	-119.077669	359.470327	1147.052147	-426.032123	385.429482	1157.013995	-150.373199	241.754163	1255.707863	-219.318260	238.207007	1254.987710	-324.339467	312.979773	1100.699898	-82.411829	279.347227	1066.375722	-458.601559	409.345494	1008.863053	-72.966649	471.254997	954.410429	-79.612488	533.866647	889.838529	-92.776889	505.570924	991.219195	-106.038281	566.331470	787.411626	-117.514943	461.756423	737.831949	-80.883172	388.109464	696.035455	-82.283455	306.208893	660.853223	-88.634413	408.256526	655.967948	-121.681144	190.381455	618.383948	-100.852438	221.169266	591.704563	-181.432569	145.969842	639.081240	-155.298844	246.857914	386.309277	-145.774900	178.696300	467.646224	-74.885076	303.860754	937.108349	-466.634524	349.362291	863.681173	-456.313999	396.858403	890.245462	-455.669039	385.652562	788.442739	-438.290712	421.156510	681.045057	-421.608635	360.278700	584.514424	-456.908994	332.787842	501.658795	-450.478146	302.772464	422.803619	-438.658934	385.077541	486.998934	-421.083239	254.678722	306.038232	-422.154442	301.847242	320.595047	-346.113001	204.354069	297.063422	-383.442787	443.626201	155.789718	-379.473762	340.868347	179.646425	-450.221188	-275.834883	875.450017	-269.237444	-21.421755	80.245441	-454.024072	-21.376300	80.634255	-54.070628	
1006	5.0300	728.668667	1284.836371	-89.866067	749.614075	1218.759916	-469.197140	753.121939	1359.773030	-282.687393	727.119195	1197.657734	-266.144684	564.658414	1068.319931	37.515183	702.703544	890.087838	-52.978108	541.723816	1038.501239	-592.772820	682.943317	887.842976	-470.784734	205.630827	1217.740726	-269.442774	361.217005	1199.617680	-451.501388	366.712065	1205.913012	-119.110401	360.645265	1145.853578	-426.301294	385.378174	1157.667283	-150.486314	242.000334	1255.861566	-220.889323	239.226308	1254.391537	-326.074382	313.420837	1102.727019	-82.395722	278.849080	1065.347196	-458.692931	411.288016	1012.233350	-72.577279	474.195205	959.111650	-79.182903	538.203802	895.843834	-92.223512	506.768567	996.185095	-105.188199	572.912353	794.334929	-117.149770	468.628161	744.252953	-81.138115	395.026576	702.521371	-82.842479	313.018960	667.433250	-89.289850	415.226196	662.548484	-122.382185	197.565784	624.704770	-101.492829	228.579098	598.204934	-182.245815	152.214010	644.790178	-155.830570	256.951533	393.638529	-146.113639	187.770290	473.963558	-75.335046	300.641538	935.966760	-466.892950	344.100772	861.352319	-456.484553	392.400001	886.689513	-455.878714	378.648613	785.367806	-438.213410	411.293250	676.709929	-422.188060	351.416306	580.592075	-457.338315	323.993837	497.749518	-450.878815	294.340219	418.761721	-438.993648	376.442472	483.236439	-421.539496	247.317854	301.382660	-421.951954	297.159253	317.276304	-346.497958	197.426393	293.498753	-383.405402	434.438254	148.443845	-379.337248	332.130942	173.869442	-449.985841	-275.867312	875.433178	-269.298190	-21.431191	80.240177	-454.025722	-21.384382	80.626295	-54.085408	
